<svg width="16" height="16" viewBox="0 0 16 16" fill="none" xmlns="http://www.w3.org/2000/svg">
<path d="M14.8974 14.8975C14.5611 15.2338 14.0367 15.2652 13.6729 14.9894L13.5779 14.9066L2.06015 3.38777L2.02014 11.7502C2.01773 12.2655 1.59804 12.687 1.08274 12.6916C0.61428 12.6958 0.228072 12.3541 0.163535 11.9047L0.154064 11.767L0.203755 1.14605C0.204072 1.07813 0.21164 1.01184 0.225717 0.94793C0.230418 0.929154 0.235262 0.909981 0.240719 0.89094C0.244973 0.874191 0.250231 0.857642 0.255928 0.841293C0.264571 0.817857 0.273913 0.79406 0.28426 0.77059C0.291964 0.75222 0.300193 0.73509 0.308912 0.718249C0.319931 0.697573 0.33213 0.675995 0.345241 0.654814C0.354213 0.639843 0.363359 0.625947 0.372854 0.612308C0.387149 0.592185 0.402478 0.571895 0.418729 0.552105C0.430945 0.536833 0.443643 0.522296 0.456765 0.508157C0.4649 0.49976 0.473386 0.490942 0.482079 0.482249L0.508139 0.456847C0.521678 0.444312 0.535582 0.432164 0.549832 0.420425L0.482079 0.482249C0.523996 0.440332 0.568837 0.403152 0.615926 0.370712C0.627121 0.362913 0.638895 0.355188 0.650846 0.347721C0.675496 0.332379 0.70013 0.318502 0.725203 0.305816C0.737621 0.299478 0.751184 0.292998 0.764917 0.286837C0.79256 0.274507 0.819937 0.263775 0.847652 0.254372C0.860632 0.249898 0.874533 0.245526 0.888565 0.24147C0.911506 0.234905 0.933962 0.229321 0.956549 0.224575C0.972514 0.221196 0.98955 0.218097 1.00674 0.215466L1.02006 0.21348C1.0611 0.207753 1.1024 0.204747 1.14369 0.204466L1.1451 0.204635L11.7669 0.154059C12.2822 0.151605 12.6962 0.567351 12.6916 1.08265C12.6874 1.55111 12.3387 1.94057 11.8882 2.00936L11.7503 2.02013L3.39041 2.06101L14.9064 13.5781C15.2683 13.9399 15.2642 14.5307 14.8974 14.8975Z" fill="#1C355E"/>
</svg>
