<svg width="142" height="121" viewBox="0 0 142 121" fill="none" xmlns="http://www.w3.org/2000/svg">
<path id="Vector" d="M94.9996 70.7506C95.2546 70.7506 95.5071 70.7002 95.7427 70.6023C95.9783 70.5043 96.1924 70.3608 96.3726 70.1798C96.5529 69.9989 96.6958 69.7841 96.7933 69.5477C96.8908 69.3113 96.9408 69.058 96.9406 68.8022V63.4468L98.2726 62.9882C98.655 62.8561 98.9868 62.6077 99.2217 62.2774C99.4565 61.9471 99.5828 61.5516 99.5828 61.1459C99.5828 60.7402 99.4565 60.3446 99.2217 60.0144C98.9868 59.6841 98.655 59.4356 98.2726 59.3035L70.974 49.8775C70.5644 49.7366 70.1197 49.7366 69.7102 49.8775L42.4059 59.3078C42.0235 59.4399 41.6917 59.6884 41.4569 60.0186C41.222 60.3489 41.0957 60.7445 41.0957 61.1501C41.0957 61.5558 41.222 61.9514 41.4569 62.2817C41.6917 62.6119 42.0235 62.8604 42.4059 62.9925L51.9537 66.2911V77.6941C51.9537 78.1136 52.0887 78.522 52.3386 78.8584C52.5886 79.1949 52.9402 79.4414 53.341 79.5613L69.7883 84.4737C70.1496 84.5819 70.5346 84.5819 70.8959 84.4737L87.3318 79.5613C87.7327 79.4414 88.0842 79.1949 88.3342 78.8584C88.5841 78.522 88.7191 78.1136 88.7191 77.6941V66.2897L93.0585 64.7914V68.8064C93.0596 69.3222 93.2646 69.8165 93.6284 70.1809C93.9923 70.5454 94.4854 70.7502 94.9996 70.7506ZM84.8341 76.2384L70.3421 80.5783L55.8373 76.2427V67.6328L56.0545 67.7083L69.7102 72.4156C70.1198 72.5561 70.5644 72.5561 70.974 72.4156L84.8384 67.63L84.8341 76.2384ZM86.2541 63.0181C86.1738 63.0398 86.095 63.0669 86.0184 63.0993L70.3407 68.5116L57.3169 64.0208L54.6601 63.1036C54.5794 63.0689 54.4964 63.0399 54.4116 63.0167L48.9988 61.1466L70.3407 53.7758L91.6783 61.1466L86.2541 63.0181ZM141.064 70.8133C138.098 68.89 134.662 67.8213 131.131 67.7238C127.6 67.6264 124.11 68.5039 121.043 70.2607C117.975 68.5041 114.486 67.6268 110.955 67.7246C107.424 67.8223 103.988 68.8912 101.022 70.8147C100.737 70.9886 100.502 71.233 100.339 71.5243C100.176 71.8156 100.09 72.1441 100.09 72.4783V99.1753C100.09 99.5208 100.182 99.86 100.356 100.158C100.531 100.456 100.781 100.703 101.081 100.872C101.381 101.041 101.721 101.127 102.065 101.122C102.41 101.116 102.746 101.018 103.041 100.839C108.57 97.4676 114.146 97.4775 120.09 100.867C120.383 101.035 120.713 101.123 121.05 101.123C121.387 101.123 121.717 101.035 122.01 100.867C127.947 97.4775 133.523 97.4676 139.059 100.84C139.354 101.017 139.689 101.113 140.032 101.117C140.375 101.122 140.714 101.035 141.012 100.866C141.311 100.696 141.56 100.451 141.733 100.154C141.907 99.8571 141.999 99.5194 142 99.1753V72.4826C142 72.148 141.914 71.8191 141.751 71.5275C141.587 71.2359 141.352 70.9914 141.067 70.8176L141.064 70.8133ZM111.372 94.4167C108.822 94.4283 106.302 94.9614 103.965 95.9835V73.6092C106.275 72.3009 108.884 71.6165 111.537 71.6227C114.189 71.629 116.795 72.3257 119.099 73.6448V96.049C116.657 94.9946 114.03 94.4396 111.372 94.4167ZM138.116 95.9835C135.727 94.9415 133.148 94.4092 130.543 94.4205C127.937 94.4318 125.363 94.9863 122.983 96.049V73.6448C125.286 72.3257 127.892 71.629 130.545 71.6227C133.198 71.6165 135.806 72.3009 138.116 73.6092V95.9835ZM57.6051 33.2532C57.6981 33.3531 57.8014 33.4429 57.9132 33.5209C61.3624 36.5194 65.7736 38.17 70.3378 38.17C74.9021 38.17 79.3133 36.5194 82.7624 33.5209C82.8738 33.4428 82.9767 33.3531 83.0691 33.2532C85.0091 31.5026 86.5686 29.3698 87.6504 26.9879C88.7322 24.6059 89.313 22.026 89.3567 19.4089C89.4004 16.7918 88.906 14.1938 87.9044 11.7768C86.9027 9.35991 85.4153 7.17594 83.5349 5.36116C83.4457 5.25599 83.3458 5.16051 83.2367 5.0763C79.7321 1.81707 75.1306 0.0042321 70.3515 7.40059e-06C65.5724 -0.0042173 60.9677 1.80048 57.4574 5.05351C57.326 5.15033 57.2077 5.26379 57.1053 5.39107C53.8849 8.51015 51.8671 12.6705 51.4084 17.1372C51.3899 17.2507 51.3814 17.3656 51.3829 17.4805C51.3374 18.0118 51.3091 18.5487 51.3091 19.0914C51.3097 21.7627 51.8707 24.4041 52.9557 26.8437C54.0406 29.2833 55.6253 31.4666 57.6065 33.2517L57.6051 33.2532ZM58.2824 9.91321C58.8808 11.0632 59.3833 12.2608 59.7847 13.4939C58.4869 13.7788 57.191 14.1211 55.8969 14.5208C56.4216 12.8579 57.2291 11.2985 58.2839 9.91179L58.2824 9.91321ZM84.7901 14.5436C83.4909 14.1434 82.1888 13.8015 80.8867 13.5096C81.2891 12.2684 81.794 11.0631 82.3961 9.90609C83.4551 11.3016 84.2651 12.8707 84.7901 14.5436ZM77.0428 12.8031C75.4572 12.5781 73.8707 12.4323 72.2832 12.3659V4.02232C74.9244 4.36306 77.4282 5.40059 79.5391 7.02901C78.4919 8.85275 77.6544 10.7899 77.0428 12.8031ZM68.3996 34.1462C65.916 33.8257 63.5514 32.8887 61.5199 31.4201C64.0022 26.9101 65.0263 21.738 64.4507 16.6188C65.7656 16.4422 67.0819 16.3249 68.3996 16.267V34.1462ZM72.2803 16.2713C73.5971 16.3311 74.9129 16.4507 76.2278 16.6302C75.6561 21.7457 76.6806 26.9132 79.16 31.4201C77.1289 32.8894 74.7641 33.8264 72.2803 34.1462V16.2713ZM68.3968 12.363C66.8017 12.4255 65.2108 12.5681 63.63 12.7903C63.0193 10.7817 62.1828 8.84933 61.1365 7.03044C63.2483 5.4003 65.7538 4.36174 68.3968 4.0209V12.363ZM55.1912 19.0885C55.1912 19.0073 55.1912 18.9276 55.1912 18.8464C56.9651 18.2265 58.7733 17.7105 60.6069 17.301C61.0116 21.195 60.2993 25.1239 58.5536 28.6256C56.3772 25.9271 55.1929 22.5595 55.1997 19.0885H55.1912ZM82.105 28.6313C80.3633 25.1344 79.6502 21.2123 80.0489 17.3238C81.8836 17.7353 83.6933 18.2522 85.4688 18.872C85.4688 18.9461 85.4688 19.0145 85.4688 19.0942C85.4746 22.5636 84.2898 25.9292 82.1135 28.6256L82.105 28.6313ZM16.9292 61.7505C17.8 53.1367 20.7279 44.8604 25.4648 37.6227C30.2017 30.385 36.6081 24.3992 44.1411 20.1724C44.364 20.0393 44.6112 19.9524 44.8681 19.9167C45.125 19.881 45.3865 19.8972 45.637 19.9645C45.8876 20.0318 46.1222 20.1487 46.3269 20.3084C46.5317 20.468 46.7025 20.6672 46.8293 20.8942C46.9561 21.1212 47.0363 21.3713 47.0652 21.6298C47.094 21.8884 47.071 22.1501 46.9974 22.3996C46.9238 22.6491 46.8011 22.8812 46.6366 23.0824C46.4721 23.2835 46.2691 23.4496 46.0396 23.5708C39.0539 27.492 33.1131 33.044 28.7203 39.7567C24.3276 46.4693 21.6122 54.145 20.8042 62.1336C20.756 62.6136 20.532 63.0587 20.1756 63.3826C19.8191 63.7065 19.3555 63.8862 18.8745 63.8869C18.809 63.8872 18.7436 63.8838 18.6785 63.877C18.4248 63.8517 18.1784 63.7764 17.9537 63.6555C17.7289 63.5346 17.5301 63.3705 17.3687 63.1724C17.2073 62.9744 17.0863 62.7463 17.0129 62.5014C16.9394 62.2564 16.9148 61.9993 16.9405 61.7448L16.9292 61.7505ZM93.8906 20.9244C94.0154 20.7013 94.1827 20.505 94.3832 20.3468C94.5836 20.1886 94.8131 20.0716 95.0587 20.0024C95.3042 19.9332 95.5609 19.9133 95.8142 19.9437C96.0674 19.9741 96.3122 20.0542 96.5345 20.1795C104.219 24.4832 110.729 30.6192 115.489 38.0455C120.249 45.4717 123.111 53.9595 123.825 62.7589C123.866 63.2739 123.702 63.7845 123.368 64.1782C123.035 64.5719 122.559 64.8165 122.045 64.8583C121.991 64.8583 121.939 64.8583 121.886 64.8583C121.399 64.8577 120.93 64.6733 120.572 64.3416C120.214 64.0099 119.993 63.5552 119.954 63.068C119.292 54.906 116.637 47.0331 112.223 40.1445C107.808 33.256 101.771 27.5638 94.6432 23.5708C94.194 23.318 93.8632 22.8966 93.7237 22.3993C93.5842 21.902 93.6473 21.3694 93.8991 20.9188L93.8906 20.9244ZM106.67 104.142C106.842 104.33 106.976 104.551 107.063 104.792C107.15 105.032 107.189 105.287 107.178 105.543C107.167 105.798 107.106 106.049 106.998 106.281C106.89 106.513 106.738 106.721 106.549 106.894C96.3745 116.229 83.007 121.276 69.2207 120.988C55.4345 120.701 42.2879 115.1 32.5089 105.348C32.1507 104.982 31.9507 104.49 31.9523 103.977C31.9539 103.464 32.1569 102.973 32.5173 102.609C32.8778 102.246 33.3666 102.039 33.8777 102.035C34.3889 102.03 34.8812 102.228 35.248 102.585C44.3186 111.631 56.513 116.826 69.3009 117.094C82.0888 117.361 94.4884 112.679 103.927 104.021C104.114 103.847 104.334 103.713 104.574 103.625C104.814 103.537 105.068 103.497 105.323 103.508C105.578 103.518 105.828 103.579 106.06 103.687C106.291 103.795 106.499 103.948 106.672 104.136L106.67 104.142ZM39.424 69.0514C39.3494 68.3269 39.0927 67.6333 38.678 67.0355C38.2632 66.4376 37.704 65.9551 37.0527 65.6331C36.0313 65.2773 34.9394 65.1741 33.8697 65.3323C32.8 65.4905 31.7842 65.9055 30.9086 66.5418C26.7822 69.0756 13.0058 68.9945 8.89933 66.4108C8.03134 65.7653 7.02104 65.339 5.954 65.1682C4.88696 64.9974 3.7946 65.087 2.7694 65.4294C2.11379 65.7447 1.54852 66.2215 1.12639 66.8153C0.704262 67.4091 0.439036 68.1005 0.355479 68.825C-1.12269 77.8222 2.11764 89.6838 8.0573 97.026C11.4964 101.276 15.4893 103.619 19.6072 103.801H19.6938H19.7563C23.8741 103.669 27.9011 101.373 31.3914 97.1613C37.4219 89.8889 40.7986 78.0644 39.424 69.0514ZM28.4038 94.6788C26.4925 96.9862 23.434 99.7578 19.7052 99.9131C15.9778 99.7137 12.9561 96.9064 11.0733 94.5777C5.76976 88.0259 2.87448 77.4591 4.18793 69.4631C4.23337 69.1782 4.31431 69.0087 4.36685 68.9859C4.46108 68.9502 4.56158 68.9342 4.66219 68.9389C5.44121 69.0064 6.18984 69.2737 6.83614 69.7151C12.1879 73.0765 27.5518 73.1719 32.9349 69.8619C33.6466 69.329 34.5298 69.0794 35.4141 69.1611C35.5193 69.2983 35.5789 69.4652 35.5845 69.6382C36.8071 77.6499 33.7883 88.1783 28.4038 94.6788ZM14.5394 79.7436C14.3178 79.5188 14.054 79.3401 13.7633 79.2179C13.4725 79.0957 13.1606 79.0323 12.8454 79.0315H12.8369C12.2013 79.0314 11.5914 79.2828 11.1394 79.7311C10.6875 80.1793 10.43 80.7882 10.4229 81.4257C10.4185 81.9381 10.2128 82.4281 9.85044 82.7894C9.48813 83.1507 8.99843 83.3542 8.48755 83.3556H8.47477C8.21974 83.3541 7.96751 83.3023 7.73248 83.2029C7.49745 83.1036 7.28424 82.9588 7.10503 82.7768C6.92582 82.5948 6.78413 82.3792 6.68804 82.1422C6.59196 81.9052 6.54337 81.6516 6.54505 81.3958C6.56002 79.7295 7.23007 78.1364 8.40957 76.9629C9.58906 75.7894 11.1827 75.1303 12.844 75.1289H12.8638C14.5307 75.1409 16.1247 75.8158 17.296 77.0054C18.4674 78.195 19.1203 79.8022 19.1116 81.4741C19.1083 81.9883 18.9023 82.4802 18.5386 82.8426C18.1749 83.205 17.6832 83.4083 17.1706 83.4083H17.1564C16.9014 83.4067 16.6494 83.3546 16.4145 83.2552C16.1796 83.1558 15.9666 83.011 15.7875 82.829C15.6085 82.647 15.4669 82.4314 15.3709 82.1946C15.2749 81.9577 15.2264 81.7042 15.2281 81.4485C15.2312 81.1328 15.172 80.8196 15.0538 80.5269C14.9356 80.2343 14.7608 79.9681 14.5394 79.7436ZM33.101 81.5639C33.0976 82.078 32.8916 82.57 32.528 82.9323C32.1643 83.2947 31.6725 83.4981 31.1599 83.4981H31.1471C30.6322 83.4947 30.1397 83.2863 29.7778 82.9188C29.416 82.5513 29.2144 82.0547 29.2174 81.5382C29.2201 80.8999 28.9703 80.2866 28.5229 79.8327C28.0754 79.3789 27.4668 79.1215 26.8305 79.1169H26.8149C26.1815 79.1203 25.5749 79.3731 25.1257 79.821C24.6765 80.2689 24.4208 80.8759 24.4137 81.5112C24.4104 82.0253 24.2044 82.5173 23.8407 82.8796C23.477 83.242 22.9853 83.4454 22.4727 83.4454H22.4599C21.9449 83.442 21.4524 83.2336 21.0906 82.8661C20.7287 82.4986 20.5271 82.0021 20.5302 81.4855C20.5242 80.6503 20.6838 79.8222 20.9995 79.0494C21.3153 78.2765 21.781 77.5743 22.3696 76.9835C22.9582 76.3927 23.6579 75.9251 24.4282 75.6078C25.1985 75.2905 26.0239 75.1299 26.8566 75.1353C27.6893 75.1406 28.5126 75.3119 29.2787 75.6391C30.0449 75.9663 30.7385 76.4429 31.3195 77.0413C31.9005 77.6397 32.3571 78.3478 32.6629 79.1247C32.9688 79.9016 33.1177 80.7316 33.101 81.5667V81.5639ZM26.058 89.7422C26.0505 91.4069 25.386 93.0008 24.2098 94.1753C23.0336 95.3498 21.4415 96.0091 19.7818 96.0091H19.7421C18.9166 96.0041 18.1001 95.836 17.3394 95.5144C16.5786 95.1929 15.8885 94.7242 15.3083 94.1351C14.7282 93.5461 14.2693 92.8481 13.9581 92.0812C13.6468 91.3142 13.4892 90.4933 13.4943 89.6653C13.4977 89.1507 13.7038 88.6584 14.0677 88.2958C14.4317 87.9332 14.9238 87.7296 15.4368 87.7297H15.4496C15.7048 87.7313 15.9573 87.7835 16.1924 87.8832C16.4276 87.9828 16.6408 88.128 16.8199 88.3105C16.999 88.4929 17.1405 88.709 17.2362 88.9464C17.332 89.1837 17.3801 89.4377 17.3779 89.6938C17.3732 90.3318 17.6213 90.9455 18.0678 91.4C18.5142 91.8545 19.1223 92.1125 19.7584 92.1172C20.3945 92.1219 21.0064 91.873 21.4595 91.4252C21.9126 90.9774 22.1698 90.3674 22.1745 89.7294C22.176 89.214 22.3811 88.7202 22.745 88.3563C23.1089 87.9924 23.6017 87.788 24.1155 87.788C24.3711 87.788 24.6242 87.8386 24.8602 87.9369C25.0963 88.0352 25.3107 88.1792 25.4911 88.3607C25.6716 88.5423 25.8145 88.7577 25.9118 88.9948C26.0091 89.2318 26.0588 89.4858 26.058 89.7422Z" fill="white"/>
</svg>
