<svg width="110" height="114" viewBox="0 0 110 114" fill="none" xmlns="http://www.w3.org/2000/svg">
<path id="Vector" fill-rule="evenodd" clip-rule="evenodd" d="M24.7415 11.4038C25.6674 11.3599 26.4692 10.7674 26.8018 9.8942L28.352 5.77516L29.9022 9.8942C30.2249 10.7674 31.0367 11.3599 31.9514 11.4038L36.3116 11.6192L32.9195 14.3778C32.191 14.9641 31.8782 15.9237 32.1289 16.8206L33.2733 21.0737L29.6205 18.6609C29.2357 18.4041 28.7877 18.2776 28.3508 18.2776C27.9027 18.2776 27.4658 18.4041 27.0711 18.6609L23.4184 21.0737L24.5739 16.8206C24.8135 15.9212 24.5007 14.9641 23.7833 14.3778L20.38 11.6192L24.7415 11.4038ZM15.6884 12.3859L20.9534 16.6565L19.1848 23.2334C18.9241 24.1818 19.2779 25.1689 20.0586 25.7452C20.8492 26.324 21.8793 26.3515 22.7022 25.8129L28.352 22.0784L34.0018 25.8129C34.3866 26.0709 34.8346 26.1975 35.2715 26.1975C35.7506 26.1975 36.2285 26.0484 36.6343 25.7477C37.425 25.1689 37.7688 24.1818 37.5081 23.236L35.7394 16.6565L41.0045 12.3859C41.7641 11.7708 42.0557 10.7699 41.7529 9.83407C41.4612 8.89826 40.6296 8.26437 39.6615 8.21802L32.9183 7.88604L30.5141 1.51081C30.1728 0.593802 29.3189 0 28.352 0C27.374 0 26.5201 0.593802 26.1775 1.51081L23.7845 7.88604L17.0301 8.21802C16.0632 8.26437 15.2403 8.89826 14.9387 9.83407C14.6371 10.7699 14.9288 11.7721 15.6884 12.3859ZM78.0396 11.4038C78.9655 11.3599 79.7773 10.7674 80.1 9.8942L81.6502 5.77516L83.2004 9.8942C83.533 10.7674 84.3348 11.3599 85.2607 11.4038L89.621 11.6192L86.2177 14.3778C85.5003 14.9641 85.1875 15.9212 85.4271 16.8206L86.5714 21.0737L82.9187 18.6609C82.5339 18.4041 82.097 18.2776 81.6489 18.2776C81.2121 18.2776 80.764 18.4041 80.3792 18.6609L76.7265 21.0737L77.8708 16.8231C78.1104 15.9237 77.8088 14.9641 77.0901 14.379L73.6869 11.6205L78.0396 11.4038ZM68.9965 12.3859L74.2615 16.6565L72.4929 23.2334C72.2322 24.1818 72.576 25.1689 73.3667 25.7452C73.7725 26.0484 74.2516 26.2 74.7295 26.2C75.1663 26.2 75.6144 26.0709 75.9992 25.8129L81.6489 22.0784L87.2987 25.8129C88.1204 26.349 89.1506 26.324 89.9424 25.7477C90.7231 25.1689 91.0769 24.1818 90.8162 23.236L89.0475 16.6565L94.3126 12.3859C95.0722 11.7708 95.3638 10.7699 95.0622 9.83407C94.7606 8.89826 93.9377 8.26437 92.9696 8.21802L86.2164 7.88604L83.8235 1.51081C83.4822 0.593802 82.6282 0 81.6502 0C80.6821 0 79.8294 0.593802 79.4856 1.51081L77.0815 7.88604L70.3394 8.21802C69.3614 8.26437 68.5397 8.89826 68.2481 9.83657C67.9465 10.7699 68.2369 11.7721 68.9965 12.3859ZM46.7486 105.674C47.1123 106.611 46.6654 107.676 45.7284 108.048C44.8024 108.423 43.7512 107.963 43.3763 107.026C43.0127 106.086 43.4595 105.022 44.3966 104.649C45.3237 104.276 46.375 104.735 46.7486 105.674ZM48.5595 109.901C48.6637 109.801 48.83 109.583 48.8201 109.26L48.7779 103.375C48.768 103.052 48.6004 102.837 48.4974 102.739C48.4043 102.639 48.1747 102.475 47.8632 102.477L17.5713 102.738C17.2597 102.74 17.0413 102.909 16.9469 103.012C16.8427 103.112 16.6764 103.33 16.6863 103.654L16.7384 109.538C16.7384 109.861 16.9047 110.076 17.009 110.174C17.1021 110.272 17.3106 110.437 17.6333 110.437C17.6333 110.437 17.6333 110.437 17.6432 110.437L47.9352 110.174C48.2479 110.173 48.4664 110.004 48.5595 109.901ZM24.1271 93.7982L6.6974 76.2034C4.5117 73.9973 3.44058 71.3389 3.53367 68.301L4.61596 29.4045C4.66809 27.7271 6.6552 26.0509 8.59142 26.0509C8.60135 26.0509 8.62245 26.0509 8.64355 26.0509C11.4734 26.0972 13.149 29.6964 13.1279 35.6782L13.0447 56.8058C13.0336 60.088 14.0848 62.9931 16.2606 65.6941C16.6565 66.1814 17.884 67.6822 18.0193 67.7824C19.9344 69.9509 21.8272 71.8075 23.8056 73.7492C24.6906 74.6199 25.6165 75.5194 26.5523 76.4677C27.2387 77.163 28.3632 77.163 29.0496 76.4677C29.7359 75.7737 29.7359 74.6449 29.0496 73.9497C28.0926 72.9813 27.1667 72.0731 26.2706 71.1949C24.1892 69.1579 22.202 67.2161 20.236 64.9249C19.4454 63.7135 18.9663 62.0686 20.4855 60.5302C21.7453 59.2637 23.7535 59.265 25.2094 60.5215C28.7777 64.7695 33.035 68.3862 36.4581 71.2976C37.6546 72.3111 38.6847 73.1855 39.5387 73.9672C42.1612 76.3562 42.5249 79.9077 42.515 83.3879L42.4939 98.9557L24.6484 99.1098V95.0585C24.6471 94.5849 24.4597 94.1327 24.1271 93.7982ZM50.9735 100.197C51.8163 101.034 52.2954 102.153 52.3053 103.344L52.3574 109.231C52.3574 110.42 51.9094 111.546 51.0778 112.399C50.2561 113.252 49.1428 113.727 47.9662 113.737L17.6643 114C17.6544 114 17.6432 114 17.6333 114C16.4679 114 15.3645 113.545 14.5329 112.716C13.6901 111.879 13.211 110.76 13.2011 109.57L13.149 103.682C13.1391 101.218 15.1051 99.1963 17.5402 99.1762L21.1198 99.1449V95.7963L4.20017 78.7251C1.33928 75.8388 -0.107917 72.1983 0.0062703 68.1996L1.08857 29.3043C1.19283 25.6776 4.82448 22.4217 8.69444 22.4906C10.5785 22.5219 16.7074 23.5642 16.6553 35.6945L16.582 56.8221C16.5721 57.7291 16.6751 58.5872 16.8936 59.414C17.1853 58.9242 17.5489 58.4544 17.9858 58.016C20.5774 55.404 24.8222 55.3777 27.6421 57.9508C27.7041 58.0047 27.7563 58.0623 27.8183 58.125C31.2104 62.1839 35.3832 65.7279 38.7344 68.5766C39.8998 69.5701 40.9921 70.5046 41.8981 71.3239C45.5608 74.6575 46.0498 79.2976 46.0399 83.3966L46.0188 98.9295L47.8396 98.9132C47.8495 98.9132 47.8607 98.9132 47.8706 98.9132C49.0385 98.9132 50.1419 99.3667 50.9735 100.197ZM63.2536 105.674C63.6285 104.735 64.6797 104.276 65.6056 104.649C66.5427 105.022 66.9895 106.086 66.6259 107.026C66.251 107.963 65.1998 108.423 64.2739 108.048C63.3355 107.676 62.8887 106.613 63.2536 105.674ZM67.5083 98.9595L67.4872 83.3891C67.4773 79.9115 67.841 76.36 70.4636 73.971C71.3175 73.1893 72.3477 72.3148 73.5441 71.3014C76.9673 68.3887 81.2232 64.7733 84.7928 60.5252C86.2499 59.27 88.2582 59.2675 89.5167 60.534C91.0359 62.0724 90.558 63.7172 89.7662 64.9286C87.789 67.2199 85.8118 69.1604 83.7304 71.1986C82.8355 72.0756 81.9096 72.9838 80.9527 73.9534C80.2663 74.6487 80.2663 75.7774 80.9527 76.4714C81.639 77.1667 82.7635 77.1667 83.4499 76.4714C84.387 75.5231 85.3129 74.6236 86.1966 73.753C88.1738 71.8112 90.0678 69.9534 91.9829 67.7861C92.1182 67.6847 93.3457 66.1851 93.7416 65.6978C95.9162 62.9969 96.9674 60.0918 96.9463 56.8096L96.8731 35.682C96.852 29.6989 98.5276 26.101 101.357 26.0546C103.294 26.0233 105.333 27.7158 105.374 29.4082L106.466 68.3023C106.549 71.3414 105.488 73.9998 103.302 76.2071L85.8751 93.7982C85.5425 94.1314 85.3551 94.5837 85.3551 95.0585V99.1136L67.5083 98.9595ZM93.0553 103.012C92.9622 102.909 92.7437 102.74 92.431 102.738L62.1391 102.475C62.1291 102.475 62.1291 102.475 62.1291 102.475C61.8064 102.475 61.5979 102.64 61.4949 102.737C61.4018 102.834 61.2355 103.051 61.2243 103.373L61.1834 109.257C61.1734 109.58 61.3397 109.798 61.4428 109.898C61.5359 110.001 61.7444 110.17 62.0671 110.173L92.359 110.436C92.3689 110.436 92.3689 110.436 92.3689 110.436C92.6804 110.436 92.9001 110.272 92.9932 110.173C93.0975 110.075 93.2638 109.858 93.2638 109.536L93.3159 103.652C93.3258 103.33 93.1595 103.112 93.0553 103.012ZM105.802 78.7251L88.8825 95.7951V99.1437L92.462 99.175C94.8972 99.195 96.8632 101.217 96.8532 103.681L96.8011 109.569C96.7912 110.76 96.3121 111.878 95.4693 112.715C94.6365 113.545 93.5344 113.999 92.3689 113.999C92.359 113.999 92.3478 113.999 92.3267 113.999L62.0348 113.737C60.8594 113.726 59.7449 113.251 58.9232 112.399C58.0904 111.546 57.6436 110.42 57.6436 109.228L57.6957 103.344C57.7056 102.153 58.1735 101.035 59.0275 100.197C59.8603 99.3667 60.9624 98.9132 62.1279 98.9132C62.1378 98.9132 62.149 98.9132 62.1589 98.9132L63.9797 98.9295L63.9499 83.3954C63.9499 79.2964 64.4389 74.6562 68.1016 71.3227C69.0077 70.5034 70.0999 69.5688 71.2654 68.5754C74.6153 65.7279 78.7781 62.1851 82.1814 58.1237C82.2335 58.0611 82.2956 58.0034 82.3577 57.9496C85.1776 55.3752 89.4236 55.4027 92.0139 58.0147C92.4508 58.4532 92.8145 58.923 93.1061 59.4128C93.3246 58.586 93.4289 57.7278 93.4177 56.8209L93.3445 35.6933C93.2923 23.5629 99.4212 22.5206 101.305 22.4893C101.336 22.4893 101.379 22.4893 101.419 22.4893C105.248 22.4893 108.807 25.7089 108.901 29.303L109.993 68.1983C110.11 72.1983 108.664 75.8388 105.802 78.7251ZM55.0011 52.9474C54.4699 52.9474 53.9498 53.104 53.4819 53.4134L43.6382 59.9164L46.7188 48.4563C47.0204 47.3639 46.6568 46.2427 45.783 45.5349L36.6157 38.0935L48.3634 37.516C49.4879 37.4609 50.4349 36.7681 50.8296 35.7083L55.0011 24.6077L59.1739 35.7096C59.5698 36.7694 60.5156 37.4622 61.6401 37.5173L73.3877 38.0948L64.2205 45.5361C63.3467 46.2439 62.9818 47.3664 63.2834 48.46L66.364 59.9176L56.5203 53.4146C56.0524 53.104 55.5323 52.9474 55.0011 52.9474ZM69.2472 63.9089C70.1843 63.2186 70.6001 62.0386 70.2873 60.9036L66.812 48.0003L77.1448 39.6244C78.0508 38.8878 78.4033 37.6889 78.0396 36.5689C77.6859 35.4515 76.6979 34.6898 75.5312 34.6347L62.3054 33.9845L57.6026 21.4834C57.1856 20.3822 56.1666 19.6706 55.0011 19.6706C53.8357 19.6706 52.8154 20.3822 52.3996 21.4809L47.6968 33.982L34.471 34.6322C33.3055 34.6886 32.3163 35.449 31.9638 36.5664C31.6002 37.6864 31.9527 38.8853 32.8587 39.6219L43.1914 47.9978L39.7161 60.9011C39.4046 62.036 39.8204 63.2161 40.7674 63.9102C41.2564 64.2684 41.8286 64.4488 42.3909 64.4488C42.9221 64.4488 43.4521 64.2947 43.9212 63.9853L55.0011 56.663L66.0835 63.9891C67.0615 64.6305 68.3002 64.6017 69.2472 63.9089Z" fill="white"/>
</svg>
