<svg width="156" height="63" viewBox="0 0 156 63" fill="none" xmlns="http://www.w3.org/2000/svg">
<g clip-path="url(#clip0_905_24)">
<path d="M-4.17018e-05 59.6953H1.2724V50.5333H1.3533L2.26576 52.3556L4.85434 57.0925L7.4429 52.3556L8.35861 50.5325H8.43949V59.6953H9.71194V48.8198H8.03585L4.91581 54.6782H4.83492L1.73106 48.8198H-0.00732422L-4.17018e-05 59.6953ZM19.3082 59.6953V58.6087H18.3925V54.1796C18.3925 52.4815 17.2439 51.468 15.3186 51.468C14.7456 51.4348 14.1748 51.565 13.6723 51.8435C13.1698 52.1219 12.7559 52.5374 12.4785 53.0419L13.2235 53.7427C13.4173 53.3724 13.7103 53.0639 14.0695 52.8519C14.4287 52.64 14.8398 52.5331 15.2563 52.5432C16.5288 52.5432 17.15 53.1661 17.15 54.3038V55.0989H15.567C13.2389 55.0989 12.1525 55.9402 12.1525 57.4539C12.1525 58.9498 13.1458 59.8845 14.8373 59.8845C15.3329 59.9245 15.8278 59.7998 16.2458 59.5294C16.6638 59.2591 16.9815 58.8582 17.15 58.3886H17.2309C17.2295 58.5672 17.2648 58.7442 17.3346 58.9085C17.4044 59.0727 17.5072 59.2208 17.6366 59.3434C17.7659 59.466 17.9191 59.5606 18.0864 59.6211C18.2538 59.6816 18.4318 59.7069 18.6093 59.6953H19.3082ZM15.0403 58.8231C14.0777 58.8231 13.4573 58.3716 13.4573 57.5765V57.2517C13.4573 56.4729 14.0939 56.0336 15.5063 56.0336H17.1516V57.3581C17.1508 58.184 16.2659 58.8231 15.0395 58.8231H15.0403ZM23.7937 59.8788C25.6252 59.8788 26.7585 58.9287 26.7585 57.3703C26.7585 56.1521 26.0757 55.3758 24.3058 55.111L23.6853 55.0177C22.692 54.8617 22.1484 54.5499 22.1484 53.7711C22.1484 53.0077 22.692 52.5246 23.7161 52.5246C24.1135 52.5093 24.5087 52.5906 24.8681 52.7615C25.2275 52.9325 25.5405 53.188 25.7805 53.5064L26.6032 52.7584C26.2752 52.3334 25.85 51.9939 25.3637 51.7687C24.8773 51.5436 24.3441 51.4393 23.8091 51.4648C22.1791 51.4648 20.9536 52.2436 20.9536 53.8328C20.9536 55.3287 22.0554 55.9361 23.53 56.1546L24.1667 56.248C25.2183 56.4039 25.5637 56.8871 25.5637 57.51C25.5637 58.3358 24.9432 58.819 23.8876 58.819C23.4225 58.8195 22.9641 58.7079 22.5508 58.4937C22.1375 58.2795 21.7815 57.9689 21.5126 57.5879L20.6276 58.305C20.9837 58.8109 21.4594 59.22 22.0121 59.4954C22.5648 59.7709 23.1771 59.904 23.7937 59.8829V59.8788ZM32.4695 59.692V58.6087H30.8371V52.7463H32.5908V51.6556H30.8371V49.4273H29.7199V50.9231C29.7199 51.4688 29.5493 51.654 29.0218 51.654H28.2768V52.7446H29.5962V58.3691C29.5812 58.5472 29.6051 58.7263 29.6662 58.8941C29.7273 59.0619 29.8242 59.2143 29.9501 59.3406C30.076 59.4669 30.2278 59.564 30.395 59.6253C30.5622 59.6866 30.7406 59.7105 30.918 59.6953L32.4695 59.692ZM37.8553 59.8788C38.5036 59.9121 39.1475 59.7562 39.7094 59.4299C40.2713 59.1036 40.727 58.6209 41.0215 58.0402L40.1365 57.4011C39.9491 57.8269 39.639 58.1866 39.2461 58.4339C38.8532 58.6811 38.3956 58.8045 37.9322 58.7882C37.612 58.8046 37.292 58.7526 36.9933 58.6356C36.6947 58.5187 36.4241 58.3394 36.1996 58.1096C35.9751 57.8799 35.8018 57.6049 35.691 57.3029C35.5803 57.0008 35.5347 56.6786 35.5572 56.3576V55.984H41.3151V55.392C41.3151 53.1182 39.9957 51.4656 37.8537 51.4656C35.6809 51.4656 34.2532 53.1174 34.2532 55.6722C34.2532 58.227 35.6825 59.8829 37.8553 59.8829V59.8788ZM37.8553 52.5091C38.1551 52.5083 38.4518 52.5711 38.7257 52.6934C38.9997 52.8156 39.2449 52.9945 39.4453 53.2184C39.6457 53.4423 39.7967 53.7062 39.8885 53.9927C39.9803 54.2793 40.0107 54.582 39.978 54.8812V55.0526H35.5547V54.9438C35.5346 54.6295 35.5795 54.3145 35.6864 54.0185C35.7933 53.7225 35.96 53.4518 36.176 53.2235C36.392 52.9953 36.6527 52.8142 36.9417 52.6919C37.2306 52.5695 37.5417 52.5084 37.8553 52.5124V52.5091ZM44.9173 59.692V54.2421C44.9173 53.4788 45.7262 52.9022 47.0593 52.9022H47.7873V51.6556H47.306C46.8133 51.6204 46.3224 51.7454 45.9059 52.012C45.4894 52.2786 45.1694 52.6727 44.9933 53.1361H44.9124V51.6556H43.6707V59.6953L44.9173 59.692ZM61.9282 59.692L58.1408 48.8166H56.4801L52.6935 59.6953H54.0128L55.0992 56.4851H59.4763L60.5627 59.6953L61.9282 59.692ZM59.1495 55.3327H55.409L57.2405 50.0347H57.3213L59.1495 55.3327ZM67.873 59.6953V58.6087H66.3522V49.9105H67.873V48.8198H63.5274V49.9105H65.0482V58.6087H63.5274V59.6953H67.873ZM81.1119 59.6953H82.6173V48.8198H81.3449V57.8721H81.298L79.994 55.457L76.0359 48.819H74.5305V59.6953H75.8029V50.643H75.8498L77.1538 53.0581L81.1119 59.6953ZM88.7012 59.8821C89.35 59.9152 89.9944 59.7589 90.5564 59.432C91.1185 59.1051 91.5741 58.6217 91.8682 58.0402L90.9832 57.4011C90.7964 57.8275 90.4865 58.1879 90.0935 58.4358C89.7006 58.6836 89.2427 58.8075 88.7789 58.7914C88.4587 58.8078 88.1387 58.7559 87.8401 58.6389C87.5414 58.5219 87.2709 58.3426 87.0464 58.1129C86.8219 57.8831 86.6485 57.6081 86.5378 57.3061C86.427 57.0041 86.3814 56.6819 86.4039 56.3608V55.9873H92.1618V55.3953C92.1618 53.1214 90.8425 51.4688 88.7004 51.4688C86.5277 51.4688 85.0999 53.1206 85.0999 55.6754C85.0999 58.2303 86.5285 59.8829 88.7012 59.8829V59.8821ZM88.7012 52.5124C89.0011 52.5111 89.2979 52.5734 89.5721 52.6951C89.8463 52.8169 90.0918 52.9955 90.2926 53.2191C90.4933 53.4427 90.6448 53.7063 90.7371 53.9928C90.8293 54.2792 90.8603 54.582 90.8279 54.8812V55.0526H86.4047V54.9438C86.3847 54.6299 86.4294 54.3152 86.536 54.0195C86.6427 53.7237 86.809 53.4533 87.0246 53.2251C87.2401 52.9968 87.5003 52.8157 87.7888 52.6931C88.0773 52.5705 88.388 52.5089 88.7012 52.5124ZM97.8421 59.6953V58.6087H96.2121V52.7463H97.9659V51.6556H96.2121V49.4273H95.095V50.9231C95.095 51.4688 94.9243 51.654 94.3969 51.654H93.6519V52.7446H94.9712V58.3691C94.9563 58.547 94.9801 58.726 95.0412 58.8937C95.1022 59.0614 95.1989 59.2136 95.3246 59.3399C95.4503 59.4662 95.602 59.5634 95.7689 59.6248C95.9359 59.6861 96.1142 59.7102 96.2914 59.6953H97.8421ZM101.583 59.6953H103.088L104.207 55.8314L104.89 53.3854H104.92L105.618 55.8314L106.737 59.6953H108.274L110.401 51.6556H109.237L108.368 55.1305L107.545 58.6517H107.514L106.521 55.1305L105.481 51.6556H104.379L103.37 55.1305L102.392 58.6517H102.362L101.508 55.1305L100.655 51.6556H99.4414L101.583 59.6953ZM115.458 59.8821C117.6 59.8821 119.075 58.2303 119.075 55.6754C119.075 53.1206 117.6 51.4688 115.458 51.4688C113.316 51.4688 111.841 53.1206 111.841 55.6754C111.841 58.2303 113.318 59.8829 115.46 59.8829L115.458 59.8821ZM115.458 58.776C114.123 58.776 113.177 57.9501 113.177 56.252V55.0989C113.177 53.4008 114.123 52.5749 115.458 52.5749C116.793 52.5749 117.739 53.4008 117.739 55.0989V56.2537C117.741 57.9501 116.794 58.776 115.46 58.776H115.458ZM122.677 59.6953V54.2421C122.677 53.4788 123.486 52.9022 124.819 52.9022H125.547V51.6556H125.066C124.573 51.6204 124.082 51.7454 123.666 52.012C123.249 52.2786 122.929 52.6727 122.753 53.1361H122.672V51.6556H121.437V59.6953H122.677ZM127.442 59.6953H128.683V56.8286L129.878 55.5975L132.532 59.6953H134.038L130.778 54.8341L133.743 51.6556H132.238L129.973 54.1016L128.746 55.4724H128.684V48.1637H127.442L127.442 59.6953ZM136.553 49.77C137.08 49.77 137.313 49.4898 137.313 49.0691V48.8637C137.313 48.443 137.08 48.1628 136.553 48.1628C136.025 48.1628 135.792 48.443 135.792 48.8637V49.0659C135.792 49.4898 136.024 49.77 136.553 49.77ZM135.931 59.6953H137.173V51.6556H135.931V59.6953ZM141.363 59.6953V54.1171C141.363 53.089 142.326 52.5903 143.319 52.5903C144.514 52.5903 145.135 53.3212 145.135 54.7562V59.6953H146.377V54.5377C146.377 52.5887 145.337 51.468 143.692 51.468C143.205 51.4397 142.721 51.5699 142.313 51.8394C141.905 52.1088 141.594 52.5032 141.427 52.9639H141.365V51.6556H140.123V59.6953H141.363ZM156 60.5837C156 59.2584 155.147 58.4463 153.16 58.4463H151.452C150.724 58.4463 150.226 58.322 150.226 57.8388C150.226 57.3402 150.753 57.0755 151.277 56.935C151.533 56.9867 151.793 57.0139 152.053 57.0162C153.885 57.0162 155.079 55.8793 155.079 54.2429C155.088 53.8515 155.011 53.4628 154.854 53.1046C154.696 52.7463 154.462 52.4271 154.169 52.1697V51.6556H155.689V50.565H154.495C153.827 50.565 153.563 51.0165 153.563 51.6402V51.7807C153.085 51.5668 152.566 51.4604 152.043 51.4688C151.659 51.4312 151.272 51.4751 150.906 51.5977C150.54 51.7204 150.204 51.919 149.92 52.1806C149.636 52.4423 149.41 52.7611 149.257 53.1163C149.104 53.4715 149.027 53.8551 149.031 54.2421C149.013 54.7555 149.147 55.2628 149.414 55.7005C149.682 56.1383 150.072 56.4871 150.536 56.7035V56.7661C149.728 56.9683 149.155 57.3581 149.155 58.1686C149.145 58.4064 149.209 58.6413 149.337 58.8419C149.464 59.0424 149.65 59.1988 149.869 59.29V59.4614C149.503 59.5179 149.17 59.7083 148.936 59.9959C148.701 60.2836 148.58 60.6482 148.597 61.0198C148.597 62.2818 149.621 62.9988 152.12 62.9988C154.696 62.9988 156 62.2355 156 60.5837ZM154.836 60.6771C154.836 61.5493 154.027 61.9862 152.648 61.9862H151.499C150.242 61.9862 149.761 61.4096 149.761 60.7088C149.754 60.4711 149.822 60.2373 149.956 60.0411C150.09 59.8449 150.282 59.6965 150.506 59.6173H153.175C154.417 59.6173 154.836 60.038 154.836 60.6771ZM152.058 56.0181C151.006 56.0181 150.335 55.5195 150.335 54.4598V54.0237C150.335 52.968 151.002 52.4653 152.058 52.4653C153.114 52.4653 153.781 52.9639 153.781 54.0237V54.4598C153.78 55.5228 153.113 56.0181 152.058 56.0181Z" fill="#1C355E"/>
<path d="M113.386 0.167236H101.431V40.7261H113.386V0.167236Z" fill="#1C355E"/>
<path d="M156 0.0040644H144.046V18.5732L132.143 0L132.137 0.0040644H120.186V40.5629H132.143V21.9945L144.049 40.5734L144.066 40.5629H156.003L156 0.0040644Z" fill="#1C355E"/>
<path d="M36.4956 0.166589V0.17877L36.4762 0.165771L24.2144 17.0742L11.9535 0.166589H-0.000793457V40.7254H11.9535V20.3583L16.8937 27.1709L24.2144 37.2675L31.5361 27.1701L36.4948 20.3331V40.7254H48.4491V0.166589H36.4956Z" fill="#1C355E"/>
<path d="M83.5929 0.16333H65.244L52.2324 40.7254H65.418L67.7832 32.7946L79.3509 26.2784H69.5322L74.414 10.5304L79.3485 26.2784L83.4182 40.7238H96.6037L83.5929 0.16333Z" fill="#1C355E"/>
</g>
<defs>
<clipPath id="clip0_905_24">
<rect width="156" height="63" fill="white"/>
</clipPath>
</defs>
</svg>
