<svg width="230" height="248" viewBox="0 0 230 248" fill="none" xmlns="http://www.w3.org/2000/svg">
<line x1="30.9155" y1="66.1174" x2="124.579" y2="12.0409" stroke="#492E98" stroke-width="4.68156"/>
<line x1="118.009" y1="235.637" x2="211.672" y2="181.56" stroke="#492E98" stroke-width="4.68156"/>
<line x1="25.4617" y1="172.921" x2="112.653" y2="17.5916" stroke="#492E98" stroke-width="4.68156"/>
<line x1="120.35" y1="16.5431" x2="214.013" y2="70.6196" stroke="#492E98" stroke-width="4.68156"/>
<line x1="19.5063" y1="181.563" x2="113.169" y2="235.639" stroke="#492E98" stroke-width="4.68156"/>
<line x1="120.35" y1="126.555" x2="214.013" y2="180.631" stroke="#492E98" stroke-width="4.68156"/>
<line x1="208.615" y1="68.9922" x2="208.615" y2="177.145" stroke="#492E98" stroke-width="4.68156"/>
<line x1="82.6124" y1="76.4775" x2="210.575" y2="71.4058" stroke="#492E98" stroke-width="4.68156"/>
<line x1="16.0947" y1="68.9922" x2="16.0947" y2="177.145" stroke="#492E98" stroke-width="4.68156"/>
<line x1="112.353" y1="128.582" x2="112.353" y2="236.735" stroke="#492E98" stroke-width="4.68156"/>
<line x1="113.168" y1="126.027" x2="19.5053" y2="180.104" stroke="#492E98" stroke-width="4.68156"/>
<line x1="211.754" y1="75.8191" x2="115.782" y2="126.146" stroke="#492E98" stroke-width="4.68156"/>
<circle cx="114.598" cy="18.5698" r="15.9947" fill="#492E98" stroke="#492E98" stroke-width="4.68156"/>
<circle cx="18.3355" cy="73.5776" r="15.9947" fill="#492E98" stroke="#492E98" stroke-width="4.68156"/>
<circle cx="114.598" cy="124" r="15.9947" fill="#492E98" stroke="#492E98" stroke-width="4.68156"/>
<circle cx="82.5093" cy="78.1597" r="15.9947" fill="#492E98" stroke="#492E98" stroke-width="4.68156"/>
<circle cx="114.598" cy="229.425" r="15.9947" fill="#492E98" stroke="#492E98" stroke-width="4.68156"/>
<circle cx="210.86" cy="73.5776" r="15.9947" fill="#492E98" stroke="#492E98" stroke-width="4.68156"/>
<circle cx="210.86" cy="179.007" r="15.9947" fill="#492E98" stroke="#492E98" stroke-width="4.68156"/>
<circle cx="18.3355" cy="179.007" r="15.9947" fill="#492E98" stroke="#492E98" stroke-width="4.68156"/>
</svg>
